<svg id="eUhNbY2spZ91" xmlns="http://www.w3.org/2000/svg" xmlns:xlink="http://www.w3.org/1999/xlink" viewBox="0 0 1254 1254" shape-rendering="geometricPrecision" text-rendering="geometricPrecision" project-id="fc7b5ff669a74db2b7c346be0f09ab29" export-id="5ce90adf433d41f2bee064463761a21a" cached="false"><path d="M0,0h17L48,4L68,9l23,8l17,8l13,10l11,11l7,11l14,29l11,24l8,16l22,45l14,29l13,28l7,15-1,3-14,10-25,17-15,10-24,15-21,13-15,9-3-1-12-25-13-28-18-38-11-23-17-36-8-18-15-31-3,4-18,36-12,26-15,31-13,28-11,23-8,16-13,28-8,16-16,33-17,35-13,27-5,2-42,6-28,2h-27l-21-2-12-3l2-6l14-29l13-28l14-30l17-36l15-32l13-28l13-28l12-26l19-41l13-28l10-22l5-10l13-28l6-11l9-12l7-7l14-9l12-6l17-6l12-3L0,0Z" transform="translate(604 292)" fill="#027dfc"/><path d="M0,0L3,3L35,67l8,16l13,28l8,16l11,22l11,23l15,31l8,16l10,22v11l-4,6-5,4-7,2h-111l-12-3-10-6-10-10-13-27-9-20-16-35-9-20-12-27-13-29-7-16v-3l38-19l22-12l29-17L-10,7L0,0Z" transform="translate(851 579)" fill="#001a59"/><path d="M0,0L10,3l17,8L40,21L51,32l7,11L72,72L83,96l8,16l22,45l14,29l13,28l7,15-1,3-14,10-25,17-15,10-24,15-21,13-15,9-3-1-12-25L4,252l-18-38-11-23-17-36-8-18-15-31l1-7l8-16l12-25l11-23l8-14L-14,9l9-7L0,0Z" transform="translate(685 306)" fill="#002c80"/><path d="M0,0L10,1L26,8L54,21L80,33l34,16l28,13l27,13l24,11l16,8l8,5l1,1v6l-4,4-14,5h-3v41l6,2l6,7l1,10-3,7-6,5-2,1h-12l-6-3-4-6-1-3v-7l4-8l4-4h3v-38l-28,11-28,11-4,2h-4l-4-18-6-11-7-7-14-8-11-5-21-7-23-5-17-2h-26l-20,3-21,6-12,5-15,8-12,8-10,9-7,8-4,11-3,12-6-1-25-12-33-15-30-14-6-4-1-1v-5l8-5l28-13l36-17l32-15l33-15l22-10l15-7l17-8L-4,1L0,0Z" transform="translate(624 135)" fill="#001f60"/><path d="M0,0h2L0,6L-14,35L-30,68L-41,91l-11,24-8,16-14,29-13,28-9,19-8,16-16,33-17,35-13,27-5,2-42,6-28,2h-27l-21-2-12-3l2-6l14-29l10-22l4-4l11-15l8-11l11-13l11-12l12-13l8-7l15-15l11-9l12-11l11-9l11-9l13-11l11-9l11-10l8-7l13-12l12-11l16-17l7-7l7-8l12-14l11-14L-3,5L0,0Z" transform="translate(623 397)" fill="#0058e9"/><path d="M0,0L3,1L-14,13l-11,9-11,9-10,9-8,7-18,18-7,8-12,16-10,17-6,15-2,14l2,11l6,9l9,8l14,7l19,5l16,2h45l23-2l35-5l34-7l47-13l24-8l5,1l8,4v2l-27,11-28,10-39,12-24,6h-2l-2,7-8,15-11,23-10,20-10,14-8,8-11,7-11,5-10,3-12,1h-49l-10-2-9-5-7-8-4-11v-7l5-14l22-45v-4l-24-7-16-8-10-8-6-8-4-10v-18l5-14l8-14l10-13l11-12l19-19l11-9l16-13l17-12l19-12L-14,8L0,0Z" transform="translate(406 552)" fill="#02a4fc"/><path d="M0,0h31L46,3L58,8l9,7l6,7l4,9l1,6v10L74,64L66,81L55,97L44,110l-9,10-16,16-11,9-13,11-20,15-33,22-21,13-24,14-32,17-32,16-31,13-21,8-16,8-8,7-3,5l7-4l13-8l20-8l25-6h15l5,2l1,3-3,1l6,3l8,15l5,11v2l-17-1h-14l-20,3-20,6-17,8-14,9-10,8-6,5h-4l-1-2v-19l5-22l8-18l9-12l8-8l14-10l26-14l23-13l26-15l19-12l16-10l27-18l19-13l13-10l16-12l14-12l12-11l8-7L5,95l8-9L25,68l6-14l1-5v-11l-3-8-8-7L9,19L3,18h-28l-31,4-28,6-18,5-2-1l15-7l20-8l25-8l24-6L0,0Z" transform="translate(890 393)" fill="#02b9fc"/><path d="M0,0h27L52,4L69,9l19,8l12,6l13,10l7,11l4,11l13,54l1,10h-4l-10-10-15-11L85,86L66,79L47,74L27,71L15,70h-20l-20,2-21,5-17,7-14,7-13,11-8,7-11,14-4-2l1-11l10-40l6-18l7-11l8-8l16-11l17-9l19-7L-8,1L0,0Z" transform="translate(617 219)" fill="#0353ac"/><path d="M0,0h2L9,8L25,21L43,32l8,4l17,6l14,3l41,4l20,5l18,6l20,12l10,8l11,11l8,17v11l-4,6-5,4-7,2h-111l-12-3-10-6-10-10L38,85L29,65L13,30L4,10L0,0Z" transform="translate(760 712)" fill="#008ffb"/><path d="M0,0L1,3L-7,18L-18,41L-28,61L-38,75l-8,8-11,7-11,5-10,3-12,1h-49l-10-2-9-5-7-8-4-11v-7l4,4h9l9-2l10-3l15-9l13-12l11-14l10-10l10-5l11-3l31-4l17-3L0,0Z" transform="translate(461 744)" fill="#16bafc"/><path d="M0,0L3,3L35,67l8,16l13,28l8,16l11,22l11,23l15,31l8,16l1,4-7-6-10-9-18-11-10-5-4-2-2-6-9-13-10-16-15-23-12-19L-3,88L-14,71L-26,52l-7-11-9-13l5-4l15-9L-7,5L0,0Z" transform="translate(851 579)" fill="#0037a5"/><path d="M0,0h13L27,2L42,7l12,6l9,7l8,8L81,44l5,14l3,14v19l-1,2-4-2-9-12-8-10-9-9-10-7-16-8-15-4-5-1h-28l-13,2l1-5L-13,4l2-2L0,0Z" transform="translate(531 636)" fill="#016bd5"/><path d="M0,0h15l5,2l1,3-3,1l6,3l8,15l5,11v2L20,36h-14l-20,3-20,6-17,8-14,9-10,8-6,5h-4l-1-2v-8l6-16l6-10l8-10l9-8l14-8l18-7L0,0Z" transform="translate(709 661)" fill="#034789"/><path d="M0,0h5L4,4l-21,6-23,4-30,4-13,5-10,9-12,14-7,8-11,9-12,7-12,4-7,1h-9l-3-2v-7l7-16l19-39l2-4l11,1l20,2h37l37-4L-4,1L0,0Z" transform="translate(459 740)" fill="#005ef0"/><path d="M0,0h17L48,4L68,9l12,4l1,2-8,4-10,9-8,10L41,65l-4,8h-2v2h-2L28,57L21,45L10,33L-1,25l-12-6-10-3h-19l-13,3-13,8-13,13-8,13-3,5-1-2l6-11l9-12l7-7l14-9l12-6l17-6l12-3L0,0Z" transform="translate(604 292)" fill="#30d4fc"/><path d="M0,0L10,1l1,4-16,8-16,8-12,8-10,8-5,4-7,8-7,10-8,16-4,4-11-21-7-9-11-12-17-12-16-8-19-7-13-4v-3l6-2h22l17,4l12,5l12,7l12,11l8,10l5,10v2h2l2-6l6-10l12-13l13-9l14-7L-9,1L0,0Z" transform="translate(696 609)" fill="#022360"/><path d="M0,0L10,1L26,8L54,21L80,33l34,16l28,13l27,13l24,11l16,8l8,5l1,4-2,1-38-18-28-13-16-7-15-7-12-6-10-4-5-3-13-5-9-5-10-4L21,14L8,9h-12L-39,25L-69,39L-97,52l-26,12-32,15-18,8-16,8-10,5h-4v2l-7,2-1-1v-5l8-5l28-13l36-17l32-15l33-15l22-10l15-7l17-8L-4,1L0,0Z" transform="translate(624 135)" fill="#0473e3"/><path d="M0,0h9L19,3l10,9l4,9l1,4v8L30,44l-7,8-8,4-9,2-10-1-10-5-7-7-4-10v-10l4-11l6-7L-4,1L0,0Z" transform="translate(619 569)" fill="#018be9"/><path d="M0,0L3,1h17l6,16l4,15l3,18v10l-8,5-7,2h-16l-3-1v-19L-6,63l-2,1-6-3-1-3l5-28L-4,9L0,0Z" transform="translate(807 326)" fill="#013994"/><path d="M0,0h37L62,5l20,7l19,10l11,7l14,11v2l-5-2-19-10-16-7-20-6-20-4-20-2h-20l-20,2-21,5-17,7-14,7-10,6h-2l-1,3h-2l2-4l5-5l8-6l9-6l14-8l19-7L-7,1L0,0Z" transform="translate(606 278)" fill="#022869"/><path d="M0,0h27l4,4-1,27-2,2h-28l-3-3v-27L0,0Z" transform="translate(952 304)" fill="#02d2fc"/><path d="M0,0h26l3,2v29l-2,2h-28l-2-3v-27L0,0Z" transform="translate(917 349)" fill="#013589"/><path d="M0,0h12l6,4l4,5l1,10-3,7-6,5-2,1h-12l-6-3-4-6-1-3v-7l4-8l4-4L0,0Z" transform="translate(811 291)" fill="#015ad5"/><path d="M0,0h23l3,3v24l-2,2-5,1h-10L-1,29l-2-2v-24L0,0Z" transform="translate(961 367)" fill="#02d0fc"/><path d="M0,0h21l2,1l1,7v14l-2,3h-22l-2-3v-19L0,0Z" transform="translate(995 399)" fill="#02235d"/><path d="M0,0L18,1l1,1v19l-2,2h-17l-3-2v-19L0,0Z" transform="translate(977 438)" fill="#0179f2"/><path d="M0,0h16l3,2v18l-1,2L4,23l-6-2-1-1v-17L0,0Z" transform="translate(995 338)" fill="#022660"/><path d="M0,0L3,1L-7,8L-19,20l-8,13-3,5-1-2l6-11l9-12l7-7L0,0Z" transform="translate(542 312)" fill="#18b0fc"/></svg>
